<svg width="15" height="15" viewBox="0 0 15 15" fill="none" xmlns="http://www.w3.org/2000/svg">
<g clip-path="url(#clip0_2312_730)">
<path d="M15 14.0334L15 2.69849C15 2.16528 14.5664 1.73169 14.0332 1.73169C13.5 1.73169 13.0664 2.16528 13.0664 2.69849L13.0664 11.6956L1.65234 0.284423C1.27442 -0.0935065 0.66211 -0.0935065 0.284181 0.284423C-0.0937491 0.662353 -0.0937491 1.27466 0.284181 1.65259L11.6982 13.0637L2.70117 13.0637C2.16797 13.0637 1.73438 13.4973 1.73438 14.0305C1.73438 14.5637 2.16797 14.9973 2.70117 14.9973L14.0332 14.9973C14.5664 15.0002 15 14.5667 15 14.0334Z" fill="#A43179"/>
</g>
<defs>
<clipPath id="clip0_2312_730">
<rect width="15" height="15" fill="white" transform="translate(15) rotate(90)"/>
</clipPath>
</defs>
</svg>
