<svg width="330" height="330" viewBox="0 0 330 330" fill="none" xmlns="http://www.w3.org/2000/svg">
<g filter="url(#filter0_f_2312_692)">
<circle cx="165" cy="165" r="75" fill="#0098EA"/>
</g>
<path d="M129.852 193.532C123.513 185.738 119.707 175.806 119.707 165H96.6094C96.6094 183.267 103.723 200.442 116.64 213.359C120.663 217.381 125.099 220.841 129.852 223.698V193.532Z" fill="#931F68"/>
<path d="M232.84 156.274C230.947 141.312 224.194 127.479 213.357 116.641C200.44 103.724 183.266 96.6106 164.998 96.6106C146.731 96.6106 129.557 103.724 116.64 116.641C103.723 129.558 96.6096 146.733 96.6096 165H92.4796C90.1054 165 89.0935 168.019 90.9884 169.45L106.669 181.29C107.099 181.614 107.622 181.79 108.16 181.79C108.699 181.79 109.222 181.614 109.652 181.29L125.333 169.45C127.227 168.019 126.216 165 123.841 165H119.707C119.707 140.026 140.025 119.708 164.999 119.708C187.489 119.708 206.204 136.185 209.703 157.702" fill="#A43079"/>
<path d="M200.328 136.702C205.11 142.659 208.425 151.352 209.703 159.212L233.142 157.703C232.279 150.885 230.101 142.874 227.294 136.702H200.328Z" fill="#A43079"/>
<path d="M239.012 161.7L223.331 149.86C222.901 149.536 222.378 149.36 221.84 149.36C221.301 149.36 220.778 149.536 220.348 149.86L204.667 161.7C202.773 163.131 203.784 166.15 206.159 166.15H210.276C209.664 190.595 189.589 210.292 164.999 210.292C150.904 210.292 138.298 203.816 129.985 193.687H102.889C106.228 200.91 110.846 207.564 116.64 213.359C129.557 226.276 146.731 233.389 164.998 233.389C183.266 233.389 200.44 226.276 213.357 213.359C226.003 200.713 233.082 183.987 233.374 166.15H237.52C239.894 166.15 240.906 163.131 239.012 161.7Z" fill="#931F68"/>
<path d="M165.5 198C184.002 198 199 183.225 199 165C199 146.775 184.002 132 165.5 132C146.998 132 132 146.775 132 165C132 183.225 146.998 198 165.5 198Z" fill="#FFEB58"/>
<path d="M156.546 157.985V154.182H174.465V157.985H167.785V176H163.225V157.985H156.546Z" fill="#00A739"/>
<defs>
<filter id="filter0_f_2312_692" x="0" y="0" width="330" height="330" filterUnits="userSpaceOnUse" color-interpolation-filters="sRGB">
<feFlood flood-opacity="0" result="BackgroundImageFix"/>
<feBlend mode="normal" in="SourceGraphic" in2="BackgroundImageFix" result="shape"/>
<feGaussianBlur stdDeviation="45" result="effect1_foregroundBlur_2312_692"/>
</filter>
</defs>
</svg>
