<svg width="330" height="330" viewBox="0 0 330 330" fill="none" xmlns="http://www.w3.org/2000/svg">
<g filter="url(#filter0_f_2312_679)">
<circle cx="165" cy="165" r="75" fill="#0098EA"/>
</g>
<g clip-path="url(#clip0_2312_679)">
<path d="M222.122 190.169C218.09 201.096 211.993 210.597 203.997 218.405C194.895 227.292 182.977 234.354 168.574 239.392C168.096 239.558 167.608 239.692 167.113 239.792C166.458 239.921 165.792 239.991 165.131 240H165.002C164.298 240 163.591 239.929 162.89 239.792C162.394 239.692 161.908 239.557 161.437 239.396C147.017 234.366 135.084 227.307 125.974 218.42C117.974 210.612 111.878 201.116 107.852 190.189C100.531 170.323 100.947 148.437 101.283 130.85L101.289 130.58C101.356 129.127 101.399 127.602 101.423 125.917C101.546 117.647 108.122 110.804 116.394 110.343C133.64 109.38 146.981 103.756 158.381 92.6448L158.48 92.5531C160.373 90.817 162.758 89.9656 165.131 90.0011C167.42 90.0307 169.7 90.8811 171.525 92.5528L171.623 92.6445C183.024 103.756 196.366 109.38 213.612 110.343C221.884 110.804 228.46 117.646 228.582 125.917C228.606 127.613 228.649 129.136 228.717 130.58L228.721 130.694C229.055 148.314 229.469 170.243 222.122 190.169Z" fill="#A43079"/>
<path d="M222.122 190.169C218.09 201.096 211.993 210.597 203.997 218.405C194.895 227.292 182.977 234.354 168.574 239.392C168.096 239.558 167.608 239.692 167.112 239.792C166.458 239.921 165.792 239.991 165.131 240V90.001C167.42 90.0306 169.7 90.8811 171.525 92.5527L171.622 92.6444C183.024 103.756 196.366 109.38 213.612 110.343C221.884 110.804 228.46 117.646 228.582 125.917C228.606 127.613 228.649 129.136 228.717 130.579L228.721 130.694C229.054 148.314 229.469 170.243 222.122 190.169Z" fill="#931F68"/>
<path d="M202.383 165C202.383 185.568 185.683 202.311 165.132 202.384H165C144.388 202.384 127.616 185.613 127.616 165C127.616 144.388 144.388 127.616 165 127.616H165.132C185.683 127.69 202.383 144.433 202.383 165Z" fill="#E6E6E6"/>
<path d="M202.383 165C202.383 185.568 185.683 202.311 165.131 202.384V127.616C185.683 127.69 202.383 144.433 202.383 165Z" fill="#E1EBF0"/>
<path d="M181.968 159.617L165.132 176.456L161.494 180.094C161.085 180.503 160.6 180.827 160.066 181.048C159.532 181.27 158.959 181.383 158.381 181.382C157.803 181.383 157.23 181.27 156.695 181.048C156.161 180.827 155.676 180.503 155.267 180.094L147.445 172.268C145.726 170.549 145.726 167.765 147.445 166.045C149.162 164.326 151.949 164.326 153.668 166.045L158.381 170.757L175.745 153.393C177.464 151.673 180.252 151.673 181.968 153.393C183.687 155.112 183.687 157.9 181.968 159.617Z" fill="#00A739"/>
<path d="M181.968 159.617L165.131 176.455V164.005L175.745 153.393C177.464 151.673 180.251 151.673 181.968 153.393C183.687 155.112 183.687 157.9 181.968 159.617Z" fill="#00A739"/>
</g>
<defs>
<filter id="filter0_f_2312_679" x="0" y="0" width="330" height="330" filterUnits="userSpaceOnUse" color-interpolation-filters="sRGB">
<feFlood flood-opacity="0" result="BackgroundImageFix"/>
<feBlend mode="normal" in="SourceGraphic" in2="BackgroundImageFix" result="shape"/>
<feGaussianBlur stdDeviation="45" result="effect1_foregroundBlur_2312_679"/>
</filter>
<clipPath id="clip0_2312_679">
<rect width="150" height="150" fill="white" transform="translate(90 90)"/>
</clipPath>
</defs>
</svg>
