<svg width="40" height="40" viewBox="0 0 40 40" fill="none" xmlns="http://www.w3.org/2000/svg">
<g clip-path="url(#clip0_2312_657)">
<path d="M38.8563 5.46842C38.2679 4.87897 37.3131 4.87795 36.7247 5.46592L18.6393 23.5036L12.1141 16.4166C11.5503 15.8046 10.597 15.7649 9.98398 16.3287C9.37141 16.8925 9.33219 17.8462 9.89602 18.4588L17.484 26.6995C17.6214 26.8489 17.7877 26.969 17.9728 27.0525C18.1578 27.136 18.3579 27.1812 18.5609 27.1855C18.5719 27.1859 18.5825 27.1859 18.593 27.1859C18.992 27.1858 19.3746 27.0277 19.6573 26.7462L38.8533 7.60053C39.4433 7.01264 39.4443 6.05787 38.8563 5.46842Z" fill="#0098EA"/>
<path d="M38.4924 18.4924C37.6598 18.4924 36.9849 19.1673 36.9849 20C36.9849 29.3659 29.3659 36.9849 20 36.9849C10.6347 36.9849 3.01508 29.3659 3.01508 20C3.01508 10.6347 10.6347 3.01508 20 3.01508C20.8327 3.01508 21.5076 2.34023 21.5076 1.50758C21.5076 0.674844 20.8327 0 20 0C8.97187 0 0 8.97187 0 20C0 31.0277 8.97187 40 20 40C31.0277 40 40 31.0277 40 20C40 19.1673 39.3252 18.4924 38.4924 18.4924Z" fill="#0098EA"/>
</g>
<defs>
<clipPath id="clip0_2312_657">
<rect width="40" height="40" fill="white"/>
</clipPath>
</defs>
</svg>
