<svg width="40" height="40" viewBox="0 0 40 40" fill="none" xmlns="http://www.w3.org/2000/svg">
<g clip-path="url(#clip0_2312_583)">
<path d="M20 0C31.0461 0 40 8.95391 40 20C40 31.0461 31.0461 40 20 40C8.95391 40 0 31.0461 0 20C0 8.95391 8.95391 0 20 0Z" fill="#27172D"/>
<path d="M20.0255 31.4768C17.9565 31.4768 15.9202 30.9362 14.139 29.9144C13.9964 29.833 13.8388 29.7802 13.6752 29.7591C13.5117 29.7381 13.3455 29.7491 13.1864 29.7916L9.31327 30.8349L10.6628 27.9175C10.8464 27.521 10.7988 27.0583 10.5398 26.7047C9.09595 24.7419 8.33383 22.4226 8.33383 20C8.33383 13.6713 13.5783 8.52315 20.0255 8.52315C26.4727 8.52315 31.7172 13.6713 31.7172 20C31.7172 26.3287 26.4727 31.4768 20.0255 31.4768ZM20.0255 6.09375C12.2139 6.09375 5.85994 12.3319 5.85994 20C5.85994 22.6973 6.63892 25.2874 8.12246 27.5356L5.97009 32.1889C5.77162 32.6185 5.84406 33.1211 6.15466 33.4796C6.39382 33.7533 6.74014 33.9062 7.09639 33.9062C7.89423 33.9062 12.2456 32.5639 13.3531 32.2649C15.4059 33.3423 17.6977 33.9061 20.0255 33.9062C27.8362 33.9062 34.1921 27.6671 34.1921 20C34.1921 12.3319 27.8362 6.09472 20.0255 6.09375Z" fill="#1EE6C5"/>
<path d="M23.4072 21.6258C22.8713 21.8411 22.529 22.6652 22.1817 23.086C22.003 23.3012 21.7907 23.3353 21.5168 23.2272C19.5043 22.4401 17.9612 21.1212 16.8508 19.3035C16.6623 19.022 16.696 18.799 16.9233 18.5369C17.2587 18.1492 17.6804 17.7089 17.7707 17.1858C17.9722 16.0306 16.433 12.4449 14.3998 14.0697C8.54994 18.7493 24.1584 31.1603 26.9756 24.4478C27.7725 22.5444 24.2963 21.2683 23.4072 21.6258Z" fill="#1EE6C5"/>
</g>
<defs>
<clipPath id="clip0_2312_583">
<rect width="40" height="40" fill="white"/>
</clipPath>
</defs>
</svg>
