<svg width="40" height="40" viewBox="0 0 40 40" fill="none" xmlns="http://www.w3.org/2000/svg">
<g clip-path="url(#clip0_2312_575)">
<path d="M40 20C40 8.95431 31.0457 0 20 0C8.95431 0 0 8.95431 0 20C0 31.0457 8.95431 40 20 40C31.0457 40 40 31.0457 40 20Z" fill="#27172D"/>
<path d="M24.7368 9.47369H15.2631C13.7276 9.47369 12.2551 10.0837 11.1693 11.1694C10.0836 12.2551 9.47363 13.7277 9.47363 15.2632V24.7369C9.47363 26.2723 10.0836 27.7449 11.1693 28.8306C12.2551 29.9164 13.7276 30.5263 15.2631 30.5263H24.7368C26.2723 30.5263 27.7448 29.9164 28.8306 28.8306C29.9163 27.7449 30.5263 26.2723 30.5263 24.7369V15.2632C30.5263 13.7277 29.9163 12.2551 28.8306 11.1694C27.7448 10.0837 26.2723 9.47369 24.7368 9.47369ZM28.6842 23.9053C28.6842 25.1727 28.1807 26.3883 27.2844 27.2845C26.3882 28.1807 25.1727 28.6842 23.9052 28.6842H16.0947C14.8272 28.6842 13.6117 28.1807 12.7155 27.2845C11.8192 26.3883 11.3157 25.1727 11.3157 23.9053V16.0947C11.3157 14.8273 11.8192 13.6117 12.7155 12.7155C13.6117 11.8193 14.8272 11.3158 16.0947 11.3158H23.9052C25.1727 11.3158 26.3882 11.8193 27.2844 12.7155C28.1807 13.6117 28.6842 14.8273 28.6842 16.0947V23.9053Z" fill="#1EE6C5"/>
<path d="M23.8395 16.2L23.7895 16.15L23.7474 16.1079C22.7524 15.1163 21.4047 14.5599 20 14.5605C19.2907 14.5654 18.5892 14.7099 17.9357 14.9859C17.2822 15.2619 16.6895 15.664 16.1915 16.1691C15.6934 16.6742 15.2998 17.2726 15.033 17.9299C14.7663 18.5872 14.6317 19.2906 14.6369 20C14.6358 21.4396 15.2033 22.8214 16.2158 23.8447C16.7118 24.3467 17.3028 24.7449 17.9543 25.016C18.6059 25.2871 19.3049 25.4257 20.0105 25.4237C21.0691 25.4015 22.0983 25.0717 22.9726 24.4747C23.8469 23.8776 24.5286 23.039 24.9346 22.0612C25.3405 21.0833 25.4531 20.0085 25.2586 18.9677C25.0642 17.927 24.5711 16.9653 23.8395 16.2ZM20 23.5684C19.2922 23.5783 18.5974 23.3775 18.0041 22.9915C17.4107 22.6055 16.9456 22.0517 16.6678 21.4006C16.39 20.7495 16.3122 20.0305 16.4442 19.335C16.5762 18.6395 16.912 17.999 17.409 17.495C17.906 16.9909 18.5417 16.646 19.2353 16.5042C19.9288 16.3625 20.6488 16.4301 21.3038 16.6987C21.9588 16.9673 22.5191 17.4245 22.9134 18.0124C23.3078 18.6003 23.5184 19.2921 23.5184 20C23.5219 20.4654 23.4336 20.9269 23.2587 21.3581C23.0837 21.7894 22.8254 22.1819 22.4987 22.5133C22.1719 22.8447 21.7831 23.1085 21.3543 23.2895C20.9256 23.4705 20.4654 23.5653 20 23.5684ZM26.9553 14.3105C26.9567 14.4794 26.9247 14.6469 26.8613 14.8034C26.7979 14.9599 26.7042 15.1024 26.5857 15.2226C26.4671 15.3429 26.326 15.4386 26.1704 15.5042C26.0148 15.5699 25.8478 15.6042 25.679 15.6053C25.5115 15.6052 25.3457 15.5719 25.1913 15.5073C25.0368 15.4427 24.8966 15.3481 24.779 15.229C24.6007 15.0481 24.4794 14.8188 24.4302 14.5697C24.381 14.3205 24.406 14.0624 24.5021 13.8273C24.5982 13.5922 24.7612 13.3905 24.9709 13.2472C25.1805 13.1039 25.4277 13.0252 25.6816 13.0211C25.9788 13.021 26.2666 13.1253 26.4948 13.3158L26.5211 13.3421C26.5635 13.3767 26.6023 13.4155 26.6369 13.4579L26.6658 13.4895C26.8542 13.7215 26.9565 14.0116 26.9553 14.3105Z" fill="#1EE6C5"/>
</g>
<defs>
<clipPath id="clip0_2312_575">
<rect width="40" height="40" fill="white"/>
</clipPath>
</defs>
</svg>
