<svg width="63" height="23" viewBox="0 0 63 23" fill="none" xmlns="http://www.w3.org/2000/svg">
<path d="M11.8715 13.7V17H0.0214844V1.4H4.22148V13.7H11.8715ZM16.2004 9.2C16.2004 12.02 17.2804 14.3 19.9504 14.3C22.6204 14.3 23.7004 12.02 23.7004 9.2C23.7004 6.38 22.6204 4.1 19.9504 4.1C17.2804 4.1 16.2004 6.38 16.2004 9.2ZM12.0004 9.2C12.0004 4.64 14.8204 0.949999 19.9504 0.949999C25.0804 0.949999 27.9004 4.64 27.9004 9.2C27.9004 13.76 25.0804 17.45 19.9504 17.45C14.8204 17.45 12.0004 13.76 12.0004 9.2ZM44.8598 1.4V15.2C44.8598 19.7 42.4598 22.85 37.0598 22.85C29.8598 22.85 29.7098 17.45 29.7098 17.45H33.9098C33.9098 17.45 34.0598 19.7 37.0598 19.7C39.7298 19.7 40.6598 18.2 40.6598 15.5V14.75H40.5098C40.5098 14.75 39.1598 16.85 35.8598 16.85C31.3598 16.85 29.1098 12.95 29.1098 8.9C29.1098 4.85 31.3598 0.949999 35.8598 0.949999C39.3098 0.949999 40.6598 3.5 40.6598 3.5H40.8098V1.4H44.8598ZM40.8098 8.9C40.8098 6.38 39.6098 4.1 37.0598 4.1C34.5098 4.1 33.3098 6.38 33.3098 8.9C33.3098 11.42 34.5098 13.7 37.0598 13.7C39.6098 13.7 40.8098 11.42 40.8098 8.9ZM50.4191 9.2C50.4191 12.02 51.4991 14.3 54.1691 14.3C56.8391 14.3 57.9191 12.02 57.9191 9.2C57.9191 6.38 56.8391 4.1 54.1691 4.1C51.4991 4.1 50.4191 6.38 50.4191 9.2ZM46.2191 9.2C46.2191 4.64 49.0391 0.949999 54.1691 0.949999C59.2991 0.949999 62.1191 4.64 62.1191 9.2C62.1191 13.76 59.2991 17.45 54.1691 17.45C49.0391 17.45 46.2191 13.76 46.2191 9.2Z" fill="#E6E6E6"/>
</svg>
