<svg width="80" height="80" viewBox="0 0 80 80" fill="none" xmlns="http://www.w3.org/2000/svg">
<g clip-path="url(#clip0_2312_618)">
<path d="M80 74.8439L80 14.3907C80 11.547 77.6875 9.2345 74.8438 9.2345C72 9.2345 69.6875 11.547 69.6875 14.3907L69.6875 62.3751L8.81251 1.51574C6.79688 -0.499881 3.53126 -0.499881 1.51563 1.51574C-0.499993 3.53137 -0.499993 6.79699 1.51563 8.81262L62.3906 69.672L14.4063 69.672C11.5625 69.672 9.25 71.9845 9.25 74.8282C9.25 77.672 11.5625 79.9845 14.4063 79.9845L74.8437 79.9845C77.6875 80.0001 80 77.6876 80 74.8439Z" fill="#0098EA"/>
</g>
<defs>
<clipPath id="clip0_2312_618">
<rect width="80" height="80" fill="white" transform="translate(80) rotate(90)"/>
</clipPath>
</defs>
</svg>
