<svg width="80" height="80" viewBox="0 0 80 80" fill="none" xmlns="http://www.w3.org/2000/svg">
<g clip-path="url(#clip0_2312_614)">
<path fill-rule="evenodd" clip-rule="evenodd" d="M54.5969 23.5416C53.6187 26.1871 52.0957 28.5977 50.1268 30.6173C48.1578 32.6369 45.7866 34.2205 43.1668 35.2656H60.1424V23.8406C60.1413 23.7617 60.1096 23.6863 60.0538 23.6305C59.9981 23.5746 59.9227 23.5427 59.8438 23.5416H54.5969ZM28.3299 35.2656C25.7102 34.2209 23.3392 32.6375 21.3706 30.6179C19.4019 28.5983 17.8795 26.1876 16.9021 23.542H12.4063C10.8569 23.55 9.37371 24.1712 8.28093 25.2696C7.18816 26.368 6.57472 27.8544 6.57472 29.4038C6.57472 30.9533 7.18816 32.4397 8.28093 33.5381C9.37371 34.6365 10.8569 35.2576 12.4063 35.2656H28.3299ZM47.4877 4.86267C50.2031 7.57839 51.8929 11.1516 52.2692 14.9735C52.6454 18.7954 51.6849 22.6296 49.5512 25.8227C47.4175 29.0158 44.2426 31.3703 40.5676 32.485C36.8926 33.5997 32.9447 33.4058 29.3967 31.9361C25.8486 30.4664 22.9199 27.812 21.1095 24.4251C19.2991 21.0382 18.7191 17.1284 19.4682 13.3618C20.2174 9.59516 22.2493 6.20482 25.2179 3.7684C28.1864 1.33197 31.908 0.00020859 35.7483 1.46364e-05C37.9291 -0.00288572 40.0888 0.425295 42.1035 1.25994C44.1181 2.09458 45.948 3.31922 47.4877 4.86345V4.86267ZM15.2412 73.2783C14.7825 73.2739 14.3441 73.0887 14.0213 72.7628C13.6984 72.4369 13.5173 71.9968 13.5173 71.5381C13.5173 71.0794 13.6984 70.6392 14.0213 70.3133C14.3441 69.9874 14.7825 69.8022 15.2412 69.7978H34.9358C35.3945 69.8022 35.8329 69.9874 36.1558 70.3133C36.4786 70.6392 36.6597 71.0794 36.6597 71.5381C36.6597 71.9968 36.4786 72.4369 36.1558 72.7628C35.8329 73.0887 35.3945 73.2739 34.9358 73.2783H15.2412ZM65.6129 61.1114C65.3844 61.1114 65.1582 61.0664 64.9471 60.979C64.736 60.8916 64.5443 60.7634 64.3827 60.6019C64.2212 60.4403 64.093 60.2486 64.0056 60.0375C63.9182 59.8264 63.8732 59.6002 63.8732 59.3717C63.8732 59.1433 63.9182 58.9171 64.0056 58.706C64.093 58.4949 64.2212 58.3031 64.3827 58.1416C64.5443 57.98 64.736 57.8519 64.9471 57.7645C65.1582 57.677 65.3844 57.632 65.6129 57.632H65.6586C66.12 57.632 66.5625 57.8153 66.8888 58.1416C67.215 58.4678 67.3983 58.9103 67.3983 59.3717C67.3983 59.8331 67.215 60.2756 66.8888 60.6019C66.5625 60.9281 66.12 61.1114 65.6586 61.1114H65.6129ZM73.4544 53.4642H63.7254C62.1638 53.4723 60.669 54.0982 59.5677 55.2052C58.4663 56.3122 57.8481 57.8103 57.8481 59.3718C57.8481 60.9334 58.4663 62.4314 59.5677 63.5384C60.669 64.6454 62.1638 65.2714 63.7254 65.2794H73.4544V53.4642ZM63.7254 49.986H68.2518V39.0414C68.2512 38.9631 68.2199 38.8881 68.1646 38.8327C68.109 38.7767 68.0337 38.7446 67.9547 38.7435H12.4063C10.2716 38.7446 8.20163 38.0102 6.54492 36.6639V74.1377C6.55134 75.6903 7.17091 77.1776 8.26872 78.2756C9.36653 79.3735 10.8537 79.9934 12.4063 80H67.9547C68.0337 79.9988 68.109 79.9667 68.1646 79.9106C68.1922 79.8831 68.2141 79.8504 68.229 79.8144C68.244 79.7784 68.2517 79.7398 68.2518 79.7008V68.7575H63.7254C61.2361 68.7575 58.8488 67.7687 57.0886 66.0085C55.3284 64.2483 54.3396 61.861 54.3396 59.3717C54.3396 56.8825 55.3284 54.4952 57.0886 52.735C58.8488 50.9748 61.2361 49.986 63.7254 49.986ZM42.0952 17.3688C42.2567 17.2073 42.4484 17.0792 42.6594 16.9918C42.8704 16.9045 43.0965 16.8595 43.3249 16.8595C43.5532 16.8595 43.7793 16.9045 43.9903 16.9919C44.2013 17.0793 44.393 17.2074 44.5544 17.3689C44.7159 17.5304 44.844 17.7221 44.9314 17.9331C45.0187 18.1441 45.0637 18.3702 45.0637 18.5986C45.0637 18.8269 45.0187 19.053 44.9313 19.264C44.8439 19.475 44.7158 19.6667 44.5543 19.8281L36.9785 27.4047C36.6519 27.7302 36.2095 27.913 35.7484 27.913C35.2873 27.913 34.845 27.7302 34.5183 27.4047L26.9437 19.8281C26.7812 19.6668 26.6522 19.475 26.564 19.2637C26.4759 19.0524 26.4303 18.8258 26.4299 18.5969C26.4295 18.3679 26.4744 18.1412 26.5618 17.9296C26.6493 17.718 26.7777 17.5258 26.9396 17.3639C27.1015 17.2021 27.2938 17.0738 27.5054 16.9864C27.717 16.899 27.9438 16.8543 28.1728 16.8548C28.4017 16.8553 28.6283 16.9009 28.8396 16.9892C29.0508 17.0774 29.2426 17.2065 29.4038 17.3691L34.0093 21.9769V7.02814C34.0093 6.56691 34.1925 6.12457 34.5186 5.79844C34.8448 5.4723 35.2871 5.28908 35.7483 5.28908C36.2096 5.28908 36.6519 5.4723 36.978 5.79844C37.3042 6.12457 37.4874 6.56691 37.4874 7.02814V21.9766L42.0952 17.3688Z" fill="#272727"/>
</g>
<defs>
<clipPath id="clip0_2312_614">
<rect width="80" height="80" fill="white"/>
</clipPath>
</defs>
</svg>
