<svg width="80" height="80" viewBox="0 0 80 80" fill="none" xmlns="http://www.w3.org/2000/svg">
<g clip-path="url(#clip0_2312_628)">
<path d="M24.6917 23.8389C22.7338 21.8912 21.3981 19.4062 20.8538 16.6987C20.3094 13.9913 20.5809 11.1832 21.6338 8.63014C22.6867 6.07709 24.4736 3.89399 26.7683 2.35738C29.0629 0.82076 31.762 -0.000226325 34.5237 -0.00158522C37.2853 -0.00294412 39.9852 0.815386 42.2814 2.34974C44.5775 3.8841 46.3667 6.06544 47.4221 8.61745C48.4775 11.1695 48.7517 13.9773 48.21 16.6853C47.6683 19.3933 46.3351 21.8795 44.3792 23.8292C44.2629 23.945 44.1249 24.0368 43.9731 24.0994C43.8213 24.1619 43.6587 24.1939 43.4945 24.1936C43.3304 24.1933 43.1679 24.1606 43.0164 24.0975C42.8648 24.0344 42.7272 23.942 42.6113 23.8257C42.4955 23.7094 42.4037 23.5715 42.3412 23.4197C42.2786 23.2679 42.2466 23.1053 42.2469 22.9411C42.2473 22.777 42.2799 22.6145 42.343 22.4629C42.4061 22.3114 42.4985 22.1738 42.6148 22.0579C44.2198 20.4576 45.3138 18.4169 45.7581 16.1943C46.2025 13.9718 45.9772 11.6673 45.1108 9.5729C44.2445 7.47847 42.776 5.68828 40.8914 4.42908C39.0068 3.16988 36.7909 2.49832 34.5244 2.49945C32.2579 2.50059 30.0426 3.17438 28.1593 4.43548C26.276 5.69658 24.8094 7.48825 23.9451 9.58355C23.0808 11.6788 22.8579 13.9835 23.3045 16.2056C23.751 18.4277 24.8471 20.4673 26.4537 22.0661C26.5711 22.1816 26.6646 22.3191 26.7286 22.4709C26.7927 22.6226 26.8262 22.7855 26.8271 22.9502C26.828 23.1149 26.7963 23.2782 26.734 23.4307C26.6716 23.5831 26.5797 23.7217 26.4635 23.8385C26.3474 23.9553 26.2093 24.048 26.0572 24.1113C25.9052 24.1746 25.7421 24.2071 25.5774 24.2072C25.4126 24.2072 25.2495 24.1747 25.0974 24.1115C24.9453 24.0483 24.8072 23.9556 24.691 23.8389H24.6917ZM62.9248 36.0128C62.1076 35.5388 61.1804 35.2876 60.2357 35.2844C59.2911 35.2811 58.3621 35.5258 57.5416 35.994C57.4727 36.0337 57.407 36.0771 57.3404 36.119C57.1174 32.7854 54.4416 31.0409 51.7935 31.0395H51.7888C50.2107 31.0395 48.6232 31.659 47.5495 32.8648C46.4787 31.545 44.8168 30.8657 43.166 30.8648H43.1613C42.0797 30.8616 41.018 31.1558 40.0923 31.7153L40.101 13.9546C40.1008 12.4808 39.5162 11.0671 38.4752 10.0237C37.4343 8.98024 36.0221 8.39216 34.5482 8.3884H34.5376C33.066 8.39375 31.6563 8.9806 30.6156 10.021C29.5749 11.0614 28.9877 12.4711 28.982 13.9426L28.9624 43.2889L25.8734 39.2225C24.1317 36.9246 21.4451 35.6987 18.8635 36.0239C16.929 36.2671 15.3792 37.3503 14.7182 38.9212C14.282 39.9579 13.8767 42.1278 16.0642 45.0117C20.6328 51.0321 22.1728 55.4146 23.5313 59.2812C24.6379 62.4306 25.5938 65.1503 27.922 67.8124C29.9828 70.1729 30.9728 72.8317 30.9487 75.9406L30.9265 78.7398C30.9252 78.904 30.9562 79.0668 31.0178 79.219C31.0794 79.3712 31.1704 79.5098 31.2856 79.6268C31.4008 79.7438 31.5379 79.837 31.6891 79.901C31.8403 79.9651 32.0026 79.9987 32.1668 79.9999H56.2145C56.546 79.9973 56.8628 79.8631 57.0954 79.6268C57.3279 79.3906 57.4571 79.0716 57.4545 78.7401L57.4324 75.9374C57.4082 72.8212 58.3995 70.1599 60.4624 67.8015C63.7877 64.0034 65.6182 59.1256 65.6129 54.0776L65.6262 41.0832C65.6295 38.8565 64.6448 37.0087 62.9248 36.0128Z" fill="#272727"/>
</g>
<defs>
<clipPath id="clip0_2312_628">
<rect width="80" height="80" fill="white"/>
</clipPath>
</defs>
</svg>
