<svg width="80" height="80" viewBox="0 0 80 80" fill="none" xmlns="http://www.w3.org/2000/svg">
<path d="M33.2696 61.6416C32.2584 60.708 30.78 60.4744 29.4576 61.0192H29.3024V60.9416C29.38 59.0744 27.9024 57.4416 26.0352 57.2856C25.5688 57.2856 25.1016 57.3632 24.6352 57.5192C24.0912 57.5968 24.2464 57.1304 24.2464 57.1304C24.9464 55.3408 24.1688 53.3968 22.3792 52.6184C21.4464 52.2296 20.3568 52.3072 19.424 52.7744C19.0344 52.852 19.112 52.4624 19.112 52.4624C20.0456 50.8296 19.5016 48.8072 17.9456 47.8736C16.3904 47.0176 14.5232 47.4072 13.4336 48.8072L10.712 52.1512C9.5448 53.6296 9.7784 55.8072 11.1784 56.9752L11.256 57.052L11.6456 57.364C12.7336 58.2192 14.2896 58.2968 15.4568 57.5968C15.5344 57.5192 15.612 57.5968 15.6904 57.6744V57.8304C15.4568 59.0744 15.9232 60.3968 16.9344 61.1744L17.2464 61.408C18.3344 62.264 19.7344 62.3416 20.9792 61.7968C21.0568 61.7192 21.1352 61.7968 21.2128 61.8752V61.9528C21.0568 63.1192 21.524 64.2864 22.4576 65.0648L22.6904 65.22C23.7792 66.076 25.18 66.1528 26.424 65.6088C26.5016 65.5304 26.6576 65.6088 26.6576 65.6864V65.764C26.8154 66.6281 27.2862 67.4037 27.98 67.9424L28.1352 68.0976C29.6912 69.264 31.8688 69.0312 33.036 67.4752C33.1136 67.32 33.1912 67.2416 33.3472 67.0864L33.8136 66.2304C34.7472 64.6752 34.5136 62.808 33.2696 61.6416ZM64.616 53.1632C64.4608 52.9296 64.3048 52.696 64.1496 52.5408L61.6608 49.5072L41.592 25.0832C41.3584 24.8496 41.048 24.7712 40.736 24.9272L31.0912 30.2952C27.9792 32.0056 24.324 32.3168 20.9792 31.072C19.1904 30.4504 17.712 28.972 17.012 27.1832C16.468 25.316 16.7008 23.372 17.6344 21.6608C17.868 21.1936 17.712 20.6496 17.3232 20.416C17.168 20.3384 17.012 20.3384 16.8568 20.2608H3.8672C2.856 20.2608 2 21.116 2 22.1272V48.0296C2 49.0408 2.856 49.8184 3.8672 49.8184H7.8336L10.6336 46.396C13.1232 43.3624 17.6344 42.9736 20.668 45.4624C21.7568 46.396 22.6128 47.6408 23.0016 49.0408C24.1827 49.3433 25.2607 49.9577 26.1229 50.8198C26.9851 51.6818 27.5997 52.7598 27.9024 53.9408C29.6136 54.4848 31.1688 55.5744 32.0248 57.208C33.5274 57.4469 34.9159 58.1548 35.992 59.2304C38.248 61.564 38.7144 65.22 37.0032 68.02L36.6136 68.72C38.4032 70.0424 40.9696 69.576 42.292 67.7864C42.9042 66.8722 43.1538 65.7627 42.992 64.6744V64.5192H43.0704L43.3808 64.8312C44.7808 66.2312 46.9592 66.464 48.6704 65.3752C49.3114 64.9189 49.8067 64.2869 50.0965 63.5554C50.3864 62.824 50.4585 62.0243 50.304 61.2528V61.1752H50.3816L50.6936 61.4856C52.0936 62.8856 54.2712 63.1192 55.9816 62.0304C57.3048 61.0968 57.9264 59.4632 57.6936 57.908V57.752H57.7712L58.0824 58.064C59.4048 59.3856 61.4264 59.6192 63.0608 58.6856C65.1608 57.6744 65.7832 55.108 64.616 53.1632ZM76.2064 20.2608H72.7056C71.228 20.2608 69.7496 20.0272 68.428 19.4824L47.2704 11.3928C42.992 9.75917 38.1696 10.46 34.5912 13.1824L21.2904 23.2944C21.0568 23.5272 20.824 23.8384 20.668 24.1496C20.124 25.3944 20.668 26.872 21.9904 27.4936C24.4016 28.5056 27.124 28.428 29.38 27.1056L40.6584 20.7272C41.5144 20.2608 42.6032 20.4936 43.2256 21.1936L67.8832 51.1408C68.1168 51.3744 68.5056 51.452 68.7392 51.2184L69.7496 50.3624C70.2944 49.9736 70.9168 49.7408 71.5392 49.7408H76.128C77.1392 49.7408 77.9176 48.9624 77.9952 47.9512V22.128C78.0728 21.1168 77.2176 20.2608 76.2064 20.2608Z" fill="#272727"/>
</svg>
